<?xml version="1.0" encoding="utf-8"?>
<!-- Generator: Adobe Illustrator 27.3.1, SVG Export Plug-In . SVG Version: 6.00 Build 0)  -->
<svg version="1.1" id="Layer_1" xmlns="http://www.w3.org/2000/svg" xmlns:xlink="http://www.w3.org/1999/xlink" x="0px" y="0px"
	 viewBox="0 0 1129.13 373.02" style="enable-background:new 0 0 1129.13 373.02;" xml:space="preserve">
<style type="text/css">
	.st0{fill:#FFFFFF;}
	.st1{fill:url(#SVGID_1_);}
	.st2{fill:url(#SVGID_00000127735852639106454530000004676872892244923839_);}
	.st3{fill:url(#SVGID_00000009558567900438353090000010219867000080049823_);}
	.st4{fill:url(#SVGID_00000011024087015409680890000002296265514438446998_);}
	.st5{fill:url(#SVGID_00000129196287237881939740000012841918394684527778_);}
	.st6{fill:url(#SVGID_00000127735940532417020970000009401499497023801257_);}
	.st7{fill:url(#SVGID_00000025418640085774094340000017864821092831223715_);}
	.st8{fill:url(#SVGID_00000047018370487309262260000006069232989910731392_);}
	.st9{fill:url(#SVGID_00000155848204731170781260000018160289109228083598_);}
	.st10{fill:url(#SVGID_00000055687295439345508820000014912713274844853662_);}
	.st11{fill:url(#SVGID_00000088125877721719882970000003856906811332147634_);}
	.st12{fill:url(#SVGID_00000065761766127846524290000010288689209474812572_);}
	.st13{fill:url(#SVGID_00000167390671315170314400000016583528039019026580_);}
	.st14{fill:url(#SVGID_00000059298639407565430350000005147660045031756215_);}
	.st15{fill:url(#SVGID_00000169548955035783639690000004932077015622627473_);}
	.st16{fill:url(#SVGID_00000173160736670529213120000007636720928421434778_);}
	.st17{fill:url(#SVGID_00000026874498830082256290000007536794964849342856_);}
	.st18{fill:url(#SVGID_00000066495984379297415410000009192432780223250592_);}
	.st19{fill:url(#SVGID_00000167393258848869834820000009156646527291936651_);}
	.st20{fill:url(#SVGID_00000016757017566650952310000015627401362249593222_);}
	.st21{fill:url(#SVGID_00000008146769458447061640000010576670942843426472_);}
	.st22{fill:url(#SVGID_00000079446806376851614400000012496182262225741736_);}
	.st23{fill:url(#SVGID_00000071536663052469697380000006261814638280450973_);}
	.st24{fill:url(#SVGID_00000008840626704169942410000012823440303804825249_);}
	.st25{fill:url(#SVGID_00000089563203561801232560000008314719630761104524_);}
	.st26{fill:url(#SVGID_00000026878238456548323320000012330495903245947312_);}
	.st27{fill:url(#SVGID_00000053519988040779999560000016201967937398661291_);}
	.st28{fill:url(#SVGID_00000098207211381932624650000008071753953994187954_);}
	.st29{fill:url(#SVGID_00000098902777170490739070000001599884268027505329_);}
	.st30{fill:url(#SVGID_00000024699516833469791490000013091546716618054812_);}
	.st31{fill:url(#SVGID_00000163051146026017093130000004736770969745019066_);}
	.st32{fill:url(#SVGID_00000116234922154994568850000014352812760829932477_);}
	.st33{fill:url(#SVGID_00000047757348241060813250000015337231754051340951_);}
	.st34{fill:url(#SVGID_00000019679958296945123580000008152762757376150973_);}
	.st35{fill:url(#SVGID_00000127011325539931409640000015006086837411595155_);}
	.st36{fill:url(#SVGID_00000092415854730373422490000010751694591554486405_);}
	.st37{fill:url(#SVGID_00000122685013419877531700000013545420634635365776_);}
	.st38{fill:url(#SVGID_00000172417370409509351720000015838455746868966276_);}
	.st39{fill:url(#SVGID_00000160161530957915239650000010269945131786482589_);}
	.st40{fill:url(#SVGID_00000090267346436799173060000010364137102817597833_);}
	.st41{fill:url(#SVGID_00000000918140421969716490000005875311618180785027_);}
	.st42{fill:url(#SVGID_00000118398707687914155130000017360695886680272799_);}
	.st43{fill:url(#SVGID_00000043443538414939174800000006851960652215754156_);}
	.st44{fill:url(#SVGID_00000056404613309790605300000005239307222759692431_);}
	.st45{fill:url(#SVGID_00000145742552992085300820000004476405087799235460_);}
	.st46{fill:url(#SVGID_00000012463537129260619750000013517295992043534747_);}
	.st47{fill:url(#SVGID_00000160150461967375037940000007348104836839376555_);}
	.st48{fill:url(#SVGID_00000099644054064973606360000016552598508616106164_);}
	.st49{fill:url(#SVGID_00000042702983442253035180000004234159427192325803_);}
	.st50{fill:url(#SVGID_00000153694138329134080990000005279582935341109407_);}
	.st51{fill:url(#SVGID_00000038400723878156956560000015296396501822727078_);}
	.st52{fill:url(#SVGID_00000018207804354548994400000006458019744488447166_);}
	.st53{fill:url(#SVGID_00000038409132410609717640000013718133090280125880_);}
	.st54{fill:url(#SVGID_00000057854742771791933630000003960300127687404441_);}
	.st55{fill:url(#SVGID_00000137848687886178620200000013436244233827886741_);}
	.st56{fill:url(#SVGID_00000026850286655087344000000010920093133874487736_);}
	.st57{fill:url(#SVGID_00000129925092577092468070000012913806157772589492_);}
	.st58{fill:url(#SVGID_00000112619186460371399510000003220593675424519869_);}
	.st59{fill:url(#SVGID_00000045582672545858122500000014270683431947820716_);}
	.st60{fill:url(#SVGID_00000111875772000825097640000000623870459896301459_);}
</style>
<g>
	<g>
		<g>
			<path class="st0" d="M485.05,137.95c0-32.19-26.19-58.39-58.39-58.39H338.6v213.89h88.06c32.19,0,58.39-26.19,58.39-58.39
				c0-19.63-9.92-37.69-26-48.5C475.13,175.91,485.05,157.83,485.05,137.95z M465.39,235.07c0,21.36-17.37,38.73-38.73,38.73h-68.4
				v-77.46h68.4C448.02,196.34,465.39,213.72,465.39,235.07z M426.66,176.68h-68.4V99.22h68.4c21.36,0,38.73,17.37,38.73,38.73
				C465.39,159.67,448.38,176.68,426.66,176.68z"/>
			<polygon class="st0" points="850.41,79.56 830.75,79.56 830.75,147.01 814.4,147.01 814.4,166.67 830.75,166.67 830.75,293.46 
				850.41,293.46 850.41,166.66 894.14,166.66 894.14,147.01 850.41,147.01 			"/>
			<path class="st0" d="M906.1,273.81h86.54v19.65h-113.8v-15.78l86.72-116.82c3.16-4.09,5.41-8.83,6.63-13.86
				c1.15-4.72,1.39-9.69,0.65-14.62c-0.29-2.01-0.75-3.96-1.34-5.86c-2.45-7.86-7.35-14.64-14.15-19.45l-0.14-0.11
				c-8.17-6.13-18.29-8.66-28.51-7.13c-10.27,1.53-19.29,6.99-25.4,15.36c-2.64,3.53-4.65,7.35-5.96,11.32h-20.04
				c1.73-8.26,5.31-16.21,10.48-23.03c9.18-12.65,22.71-20.87,38.12-23.16c15.42-2.29,30.83,1.68,43.38,11.2
				c11.59,8.62,19.4,20.95,22.25,35c0.23,1.12,0.43,2.27,0.6,3.42c0.83,5.75,0.8,11.49-0.04,17.06c-1.42,9.26-5.1,18.06-10.87,25.73
				L906.1,273.81z"/>
			<path class="st0" d="M1042.49,273.81h86.54v19.65h-113.8v-15.78l86.72-116.82c6.15-7.94,8.8-18.31,7.29-28.48
				c-1.56-10.36-7.05-19.34-15.49-25.3l-0.14-0.11c-8.17-6.13-18.3-8.66-28.51-7.13c-10.27,1.53-19.29,6.99-25.4,15.36
				c-2.66,3.53-4.65,7.34-5.96,11.32h-20.04c1.72-8.26,5.32-16.21,10.48-23.03c9.18-12.65,22.71-20.87,38.11-23.16
				c15.44-2.29,30.86,1.69,43.41,11.21c12.48,9.29,20.61,22.94,22.82,38.4c2.21,15.32-1.67,30.51-10.9,42.78L1042.49,273.81z"/>
			<g>
				<path d="M514.62,225.1c2.15,30.68,27.99,55.17,59.2,55.17c16.15,0,30.95-6.46,41.71-17.22l5.92,5.38
					c-12.11,12.38-28.79,19.91-47.63,19.91c-37.14,0-67.28-30.14-67.28-67.28c0-37.14,30.14-67.28,67.28-67.28
					c37.14,0,67.28,30.14,67.28,67.28v4.04H514.62z M514.62,217.02h118.14c-2.15-30.68-27.72-55.17-58.94-55.17
					C542.61,161.86,516.77,186.35,514.62,217.02z"/>
				<path class="st0" d="M573.82,293.46c-39.92,0-72.4-32.48-72.4-72.4s32.48-72.4,72.4-72.4c39.92,0,72.4,32.48,72.4,72.4v9.15
					H520.39c4.45,25.6,26.94,44.93,53.43,44.93c14.43,0,27.95-5.58,38.09-15.72l3.45-3.45l13.46,12.24l-3.71,3.8
					C611.58,285.84,593.37,293.46,573.82,293.46z M520.39,211.91h106.6c-4.44-25.6-26.81-44.93-53.17-44.93
					C547.33,166.97,524.84,186.31,520.39,211.91z"/>
			</g>
			<g>
				<path class="st0" d="M794.5,253.08c-11.57,20.99-33.64,35.25-59.2,35.25c-37.14,0-67.28-30.14-67.28-67.28
					c0-37.14,30.14-67.28,67.28-67.28c37.14,0,67.28,30.14,67.28,67.28v67.28h-8.07V253.08z M735.29,280.27
					c32.56,0,59.2-26.64,59.2-59.2c0-32.56-26.64-59.2-59.2-59.2c-32.56,0-59.2,26.64-59.2,59.2
					C676.09,253.62,702.73,280.27,735.29,280.27z"/>
				<path class="st0" d="M807.69,293.46h-18.31v-24.35c-13.67,15.3-33.26,24.35-54.09,24.35c-39.92,0-72.4-32.48-72.4-72.4
					s32.48-72.4,72.4-72.4c39.92,0,72.4,32.48,72.4,72.4V293.46z M735.29,166.97c-29.82,0-54.09,24.26-54.09,54.09
					s24.26,54.09,54.09,54.09c29.82,0,54.09-24.26,54.09-54.09S765.12,166.97,735.29,166.97z"/>
			</g>
		</g>
		<g>
			
				<linearGradient id="SVGID_1_" gradientUnits="userSpaceOnUse" x1="4476.4053" y1="-1310.6407" x2="5266.936" y2="-1310.6407" gradientTransform="matrix(1 0 0 1 -4137.8047 1497.1506)">
				<stop  offset="2.770450e-07" style="stop-color:#8D98FF"/>
				<stop  offset="1" style="stop-color:#A56CFF"/>
			</linearGradient>
			<path class="st1" d="M485.05,137.95c0-32.19-26.19-58.39-58.39-58.39H338.6v213.89h88.06c32.19,0,58.39-26.19,58.39-58.39
				c0-19.63-9.92-37.69-26-48.5C475.13,175.91,485.05,157.83,485.05,137.95z M465.39,235.07c0,21.36-17.37,38.73-38.73,38.73h-68.4
				v-77.46h68.4C448.02,196.34,465.39,213.72,465.39,235.07z M426.66,176.68h-68.4V99.22h68.4c21.36,0,38.73,17.37,38.73,38.73
				C465.39,159.67,448.38,176.68,426.66,176.68z"/>
			
				<linearGradient id="SVGID_00000030486035148491734500000009371195593825310848_" gradientUnits="userSpaceOnUse" x1="4476.4053" y1="-1310.6407" x2="5266.936" y2="-1310.6407" gradientTransform="matrix(1 0 0 1 -4137.8047 1497.1506)">
				<stop  offset="2.770450e-07" style="stop-color:#8D98FF"/>
				<stop  offset="1" style="stop-color:#A56CFF"/>
			</linearGradient>
			<polygon style="fill:url(#SVGID_00000030486035148491734500000009371195593825310848_);" points="850.41,79.56 830.75,79.56 
				830.75,147.01 814.4,147.01 814.4,166.67 830.75,166.67 830.75,293.46 850.41,293.46 850.41,166.66 894.14,166.66 894.14,147.01 
				850.41,147.01 			"/>
			
				<linearGradient id="SVGID_00000087401530361359334640000002695425845696967818_" gradientUnits="userSpaceOnUse" x1="4476.4053" y1="-1310.6407" x2="5266.936" y2="-1310.6407" gradientTransform="matrix(1 0 0 1 -4137.8047 1497.1506)">
				<stop  offset="2.770450e-07" style="stop-color:#8D98FF"/>
				<stop  offset="1" style="stop-color:#A56CFF"/>
			</linearGradient>
			<path style="fill:url(#SVGID_00000087401530361359334640000002695425845696967818_);" d="M906.1,273.81h86.54v19.65h-113.8
				v-15.78l86.72-116.82c3.16-4.09,5.41-8.83,6.63-13.86c1.15-4.72,1.39-9.69,0.65-14.62c-0.29-2.01-0.75-3.96-1.34-5.86
				c-2.45-7.86-7.35-14.64-14.15-19.45l-0.14-0.11c-8.17-6.13-18.29-8.66-28.51-7.13c-10.27,1.53-19.29,6.99-25.4,15.36
				c-2.64,3.53-4.65,7.35-5.96,11.32h-20.04c1.73-8.26,5.31-16.21,10.48-23.03c9.18-12.65,22.71-20.87,38.12-23.16
				c15.42-2.29,30.83,1.68,43.38,11.2c11.59,8.62,19.4,20.95,22.25,35c0.23,1.12,0.43,2.27,0.6,3.42c0.83,5.75,0.8,11.49-0.04,17.06
				c-1.42,9.26-5.1,18.06-10.87,25.73L906.1,273.81z"/>
			
				<linearGradient id="SVGID_00000023981667587280762770000014325502383753991319_" gradientUnits="userSpaceOnUse" x1="4476.4053" y1="-1310.6407" x2="5266.936" y2="-1310.6407" gradientTransform="matrix(1 0 0 1 -4137.8047 1497.1506)">
				<stop  offset="2.770450e-07" style="stop-color:#8D98FF"/>
				<stop  offset="1" style="stop-color:#A56CFF"/>
			</linearGradient>
			<path style="fill:url(#SVGID_00000023981667587280762770000014325502383753991319_);" d="M1042.49,273.81h86.54v19.65h-113.8
				v-15.78l86.72-116.82c6.15-7.94,8.8-18.31,7.29-28.48c-1.56-10.36-7.05-19.34-15.49-25.3l-0.14-0.11
				c-8.17-6.13-18.3-8.66-28.51-7.13c-10.27,1.53-19.29,6.99-25.4,15.36c-2.66,3.53-4.65,7.34-5.96,11.32h-20.04
				c1.72-8.26,5.32-16.21,10.48-23.03c9.18-12.65,22.71-20.87,38.11-23.16c15.44-2.29,30.86,1.69,43.41,11.21
				c12.48,9.29,20.61,22.94,22.82,38.4c2.21,15.32-1.67,30.51-10.9,42.78L1042.49,273.81z"/>
			<g>
				
					<linearGradient id="SVGID_00000085943677489871998970000016665050740550747040_" gradientUnits="userSpaceOnUse" x1="4476.4053" y1="-1310.6407" x2="5266.936" y2="-1310.6407" gradientTransform="matrix(1 0 0 1 -4137.8047 1497.1506)">
					<stop  offset="2.770450e-07" style="stop-color:#8D98FF"/>
					<stop  offset="1" style="stop-color:#A56CFF"/>
				</linearGradient>
				<path style="fill:url(#SVGID_00000085943677489871998970000016665050740550747040_);" d="M514.62,225.1
					c2.15,30.68,27.99,55.17,59.2,55.17c16.15,0,30.95-6.46,41.71-17.22l5.92,5.38c-12.11,12.38-28.79,19.91-47.63,19.91
					c-37.14,0-67.28-30.14-67.28-67.28c0-37.14,30.14-67.28,67.28-67.28c37.14,0,67.28,30.14,67.28,67.28v4.04H514.62z
					 M514.62,217.02h118.14c-2.15-30.68-27.72-55.17-58.94-55.17C542.61,161.86,516.77,186.35,514.62,217.02z"/>
				
					<linearGradient id="SVGID_00000073689014708986253740000004585635486132192953_" gradientUnits="userSpaceOnUse" x1="4476.4053" y1="-1310.6407" x2="5266.936" y2="-1310.6407" gradientTransform="matrix(1 0 0 1 -4137.8047 1497.1506)">
					<stop  offset="2.770450e-07" style="stop-color:#8D98FF"/>
					<stop  offset="1" style="stop-color:#A56CFF"/>
				</linearGradient>
				<path style="fill:url(#SVGID_00000073689014708986253740000004585635486132192953_);" d="M573.82,293.46
					c-39.92,0-72.4-32.48-72.4-72.4s32.48-72.4,72.4-72.4c39.92,0,72.4,32.48,72.4,72.4v9.15H520.39
					c4.45,25.6,26.94,44.93,53.43,44.93c14.43,0,27.95-5.58,38.09-15.72l3.45-3.45l13.46,12.24l-3.71,3.8
					C611.58,285.84,593.37,293.46,573.82,293.46z M520.39,211.91h106.6c-4.44-25.6-26.81-44.93-53.17-44.93
					C547.33,166.97,524.84,186.31,520.39,211.91z"/>
			</g>
			<g>
				
					<linearGradient id="SVGID_00000013887466576068991170000010660293425656516018_" gradientUnits="userSpaceOnUse" x1="4476.4053" y1="-1310.6407" x2="5266.936" y2="-1310.6407" gradientTransform="matrix(1 0 0 1 -4137.8047 1497.1506)">
					<stop  offset="2.770450e-07" style="stop-color:#8D98FF"/>
					<stop  offset="1" style="stop-color:#A56CFF"/>
				</linearGradient>
				<path style="fill:url(#SVGID_00000013887466576068991170000010660293425656516018_);" d="M794.5,253.08
					c-11.57,20.99-33.64,35.25-59.2,35.25c-37.14,0-67.28-30.14-67.28-67.28c0-37.14,30.14-67.28,67.28-67.28
					c37.14,0,67.28,30.14,67.28,67.28v67.28h-8.07V253.08z M735.29,280.27c32.56,0,59.2-26.64,59.2-59.2
					c0-32.56-26.64-59.2-59.2-59.2c-32.56,0-59.2,26.64-59.2,59.2C676.09,253.62,702.73,280.27,735.29,280.27z"/>
				
					<linearGradient id="SVGID_00000071521411477623260800000010823119016148428966_" gradientUnits="userSpaceOnUse" x1="4476.4053" y1="-1310.6407" x2="5266.936" y2="-1310.6407" gradientTransform="matrix(1 0 0 1 -4137.8047 1497.1506)">
					<stop  offset="2.770450e-07" style="stop-color:#8D98FF"/>
					<stop  offset="1" style="stop-color:#A56CFF"/>
				</linearGradient>
				<path style="fill:url(#SVGID_00000071521411477623260800000010823119016148428966_);" d="M807.69,293.46h-18.31v-24.35
					c-13.67,15.3-33.26,24.35-54.09,24.35c-39.92,0-72.4-32.48-72.4-72.4s32.48-72.4,72.4-72.4c39.92,0,72.4,32.48,72.4,72.4V293.46
					z M735.29,166.97c-29.82,0-54.09,24.26-54.09,54.09s24.26,54.09,54.09,54.09c29.82,0,54.09-24.26,54.09-54.09
					S765.12,166.97,735.29,166.97z"/>
			</g>
		</g>
	</g>
	<g>
		
			<linearGradient id="SVGID_00000004539172982224977580000013719347813686877361_" gradientUnits="userSpaceOnUse" x1="0" y1="186.5099" x2="251.7625" y2="186.5099">
			<stop  offset="2.770450e-07" style="stop-color:#8D98FF"/>
			<stop  offset="1" style="stop-color:#A56CFF"/>
		</linearGradient>
		<path style="fill:url(#SVGID_00000004539172982224977580000013719347813686877361_);" d="M191.36,185.56l37.74-5.44
			c13.04-1.88,22.67-12.35,22.67-24.67V66.87c0-10.71-7.32-20.22-18.21-23.65L100.34,1.31c-7.58-2.38-15.89-1.48-22.68,2.46
			L12.62,41.5C4.77,46.06,0,54.07,0,62.7v247.61c0,8.63,4.77,16.63,12.62,21.19l65.04,37.75c6.79,3.94,15.11,4.84,22.69,2.46
			l133.21-41.91c10.88-3.43,18.21-12.94,18.21-23.65v-88.75c0-12.35-9.68-22.84-22.76-24.68l-37.63-5.29
			C190.21,187.27,190.21,185.73,191.36,185.56z M59.36,37.73l29.02-11.31L204.91,58.8c2.59,0.72,4.37,2.94,4.37,5.47v21.64
			c0,3.64-3.62,6.36-7.43,5.57L88.38,68.18v-0.06l-29.02,8.08V37.73z M59.36,80.54l29.02-7.72l116.06,22.89
			c2.82,0.56,4.85,2.89,4.85,5.58v21.86c0,3.45-3.26,6.12-6.93,5.65L88.38,114.59v-0.06l-29.02,4.49V80.54z M209.29,308.76
			c0,2.53-1.78,4.75-4.37,5.47L88.38,346.6l-29.02-11.31v-38.48l29.02,8.08v-0.06l113.48-23.3c3.82-0.79,7.43,1.93,7.43,5.57V308.76
			z M209.29,271.72c0,2.7-2.02,5.03-4.85,5.58L88.38,300.2v-0.01l-29.02-7.72V254l29.02,4.49v-0.05l113.98-14.23
			c3.67-0.45,6.93,2.21,6.93,5.65V271.72z M203.96,212.34c3.04,0.38,5.32,2.8,5.32,5.66v16.64c0,2.88-2.3,5.31-5.36,5.66
			L88.38,253.79v-0.01l-29.02-4.12v-51.45h29.02L203.96,212.34z M88.38,172.41H59.36v-49.06l29.02-4.12v-0.01l115.55,13.49
			c3.06,0.35,5.36,2.79,5.36,5.66v17.41c0,2.93-2.38,5.38-5.5,5.68L88.38,172.41z"/>
	</g>
</g>
</svg>
